<svg width="10" height="10" viewBox="0 0 10 10" fill="none" xmlns="http://www.w3.org/2000/svg">
<circle cx="5" cy="5" r="5" fill="white"/>
<path d="M2.55957 7.53843C2.48855 7.46742 2.48538 7.3533 2.55234 7.27846L6.85542 2.46916C6.92785 2.38821 7.05341 2.38473 7.13021 2.46153V2.46153C7.20121 2.53254 7.20438 2.64664 7.13743 2.72148L2.83436 7.53079C2.76193 7.61173 2.63638 7.61522 2.55957 7.53843V7.53843Z" fill="#689FB7"/>
<path d="M2.55924 2.46164C2.63605 2.38482 2.76163 2.38831 2.83407 2.46926L7.13584 7.27713C7.20341 7.35265 7.19991 7.46788 7.12788 7.53916V7.53916C7.05053 7.61571 6.92484 7.61187 6.8523 7.53075L2.55198 2.72157C2.48505 2.64673 2.48824 2.53263 2.55924 2.46164V2.46164Z" fill="#689FB7"/>
</svg>
