<svg width="31" height="31" viewBox="0 0 31 31" fill="none" xmlns="http://www.w3.org/2000/svg">
<circle cx="15.5" cy="15.5" r="15.5" fill="#689FB7"/>
<path d="M7.93407 23.3692C7.7139 23.1491 7.70407 22.7953 7.91166 22.5633L21.2512 7.65445C21.4757 7.40352 21.8649 7.39271 22.103 7.63081C22.3232 7.85092 22.333 8.20465 22.1254 8.43664L8.7859 23.3455C8.56139 23.5964 8.17218 23.6072 7.93407 23.3692Z" fill="white"/>
<path d="M7.93408 7.63086C8.17221 7.39273 8.56149 7.40354 8.78604 7.65451L22.1215 22.5589C22.331 22.793 22.3202 23.1502 22.0969 23.3712C21.8571 23.6085 21.4674 23.5966 21.2426 23.3451L7.91159 8.43668C7.70411 8.20464 7.71398 7.85096 7.93408 7.63086Z" fill="white"/>
</svg>
