<svg width="50" height="50" viewBox="0 0 50 50" fill="none" xmlns="http://www.w3.org/2000/svg">
<circle cx="25" cy="25" r="25" fill="#689FB7"/>
<path d="M26.0001 22.3178C17.0401 22.3178 13.3778 17.7963 12.6667 15.5356C9.68 19.2918 12.1333 23.0134 13.7334 24.4046C12.0267 24.4046 10.5333 23.709 10 23.3612C10.4267 27.1175 14.8 29.7956 16.9334 30.6651C15.6534 31.0824 13.5556 30.839 12.6667 30.6651C13.9467 33.5866 17.1112 35.3604 18.5334 35.8821C16.8267 36.7168 12.1333 37.2733 10 37.4472C32.6135 46.2118 38.978 30.3173 39.3336 21.2744C41.0402 20.4398 41.1113 19.1876 40.9336 18.6659H39.3336L40.9336 15.5356L37.2002 16.579C26.9601 11.9881 25.4668 18.4919 26.0001 22.3178Z" fill="white"/>
</svg>
