<svg width="38" height="26" viewBox="0 0 38 26" fill="none" xmlns="http://www.w3.org/2000/svg">
<path d="M26.5449 3.07953C26.8359 2.14117 28.1641 2.14117 28.4551 3.07952L29.6391 6.89704C29.7689 7.31555 30.1561 7.60081 30.5942 7.60081H34.5212C35.4786 7.60081 35.8887 8.81667 35.1268 9.39654L31.8711 11.8746C31.5368 12.1291 31.3971 12.5653 31.5216 12.9666L32.7461 16.9147C33.0344 17.8443 31.9598 18.5961 31.1853 18.0067L28.1057 15.6626C27.7478 15.3902 27.2522 15.3902 26.8943 15.6626L23.8147 18.0067C23.0402 18.5961 21.9656 17.8443 22.2539 16.9147L23.4784 12.9666C23.6029 12.5653 23.4632 12.1291 23.1289 11.8746L19.8732 9.39654C19.1113 8.81666 19.5214 7.60081 20.4788 7.60081H24.4058C24.8439 7.60081 25.2311 7.31555 25.3609 6.89704L26.5449 3.07953Z" fill="white"/>
<path d="M9.54488 3.07953C9.83592 2.14117 11.1641 2.14117 11.4551 3.07952L12.6391 6.89704C12.7689 7.31555 13.1561 7.60081 13.5942 7.60081H17.5212C18.4786 7.60081 18.8887 8.81667 18.1268 9.39654L14.8711 11.8746C14.5368 12.1291 14.3971 12.5653 14.5216 12.9666L15.7461 16.9147C16.0344 17.8443 14.9598 18.5961 14.1853 18.0067L11.1057 15.6626C10.7478 15.3902 10.2522 15.3902 9.89434 15.6626L6.81466 18.0067C6.04023 18.5961 4.96558 17.8443 5.25389 16.9147L6.4784 12.9666C6.60285 12.5653 6.46324 12.1291 6.12894 11.8746L2.87316 9.39654C2.11132 8.81666 2.5214 7.60081 3.47882 7.60081H7.40576C7.84394 7.60081 8.23108 7.31555 8.36088 6.89704L9.54488 3.07953Z" fill="white"/>
<path d="M17.584 5.56055C18.038 4.2629 19.8306 4.22182 20.3682 5.43848L20.416 5.56055L21.2021 7.80859C21.553 8.8114 22.5001 9.48242 23.5625 9.48242H25.7744C27.2079 9.4826 27.8023 11.2808 26.7227 12.1455L26.6133 12.2266L25.085 13.2568C24.2021 13.8525 23.7993 14.9365 24.0615 15.9531L24.123 16.1553L24.7656 17.9922C25.2276 19.3124 23.8017 20.4647 22.624 19.8008L22.5117 19.7314L20.3984 18.3057C19.6065 17.7714 18.5845 17.7378 17.7637 18.2051L17.6016 18.3057L15.4883 19.7314C14.3288 20.5133 12.8525 19.4267 13.1953 18.1191L13.2344 17.9922L13.877 16.1553C14.2286 15.15 13.9031 14.041 13.085 13.3828L12.915 13.2568L11.3867 12.2266C10.16 11.399 10.7459 9.48261 12.2256 9.48242H14.4375C15.4336 9.48242 16.3277 8.89238 16.7246 7.99219L16.7979 7.80859L17.584 5.56055Z" fill="white" stroke="#689FB7"/>
</svg>
