<svg width="92" height="65" viewBox="0 0 92 65" fill="none" xmlns="http://www.w3.org/2000/svg">
<path d="M65.544 3.11534C65.8331 2.17316 67.1669 2.17316 67.456 3.11534L72.0083 17.9499C72.1371 18.3699 72.525 18.6565 72.9643 18.6565H87.812C88.7668 18.6565 89.1785 19.8669 88.4217 20.4491L76.3132 29.764C75.9825 30.0184 75.8445 30.4512 75.9669 30.85L80.5685 45.8452C80.8543 46.7767 79.775 47.5253 79.0027 46.9312L67.1097 37.7821C66.7503 37.5056 66.2497 37.5056 65.8903 37.7821L53.9973 46.9312C53.225 47.5253 52.1457 46.7767 52.4315 45.8452L57.0331 30.85C57.1555 30.4512 57.0175 30.0184 56.6868 29.764L44.5783 20.4491C43.8215 19.8669 44.2332 18.6565 45.188 18.6565H60.0357C60.475 18.6565 60.8629 18.3699 60.9917 17.9499L65.544 3.11534Z" fill="#689FB7"/>
<path d="M24.0424 3.18297C24.328 2.23377 25.672 2.23376 25.9576 3.18297L30.3987 17.9446C30.5258 18.3672 30.915 18.6565 31.3563 18.6565H45.8821C46.8321 18.6565 47.2468 19.8568 46.4994 20.4433L34.6187 29.7656C34.2949 30.0197 34.1598 30.4463 34.2784 30.8404L38.7847 45.8188C39.066 46.7539 37.9779 47.4964 37.2098 46.8937L25.6173 37.7975C25.2549 37.5131 24.7451 37.5131 24.3827 37.7975L12.7902 46.8937C12.0221 47.4964 10.934 46.7539 11.2153 45.8189L15.7216 30.8404C15.8402 30.4463 15.7051 30.0197 15.3813 29.7656L3.50063 20.4433C2.75324 19.8568 3.16794 18.6565 4.11794 18.6565H18.6437C19.085 18.6565 19.4742 18.3672 19.6013 17.9446L24.0424 3.18297Z" fill="#689FB7"/>
<path d="M44.0732 6.00879C44.5082 4.67013 46.3564 4.62806 46.8799 5.88281L46.9268 6.00879L51.8721 21.2295C52.2068 22.2595 53.1669 22.957 54.25 22.957H70.2539C71.6618 22.957 72.2728 24.7024 71.2402 25.5879L71.1357 25.6709L58.1885 35.0771C57.3669 35.674 56.9931 36.7036 57.2256 37.6787L57.2803 37.873L62.2256 53.0938C62.6602 54.4324 61.1894 55.5526 60.0283 54.8447L59.917 54.7705L46.9697 45.3633C46.1482 44.7664 45.0538 44.7296 44.1982 45.252L44.0303 45.3633L31.083 54.7705C29.9443 55.5978 28.4243 54.5455 28.7383 53.2227L28.7744 53.0938L33.7197 37.873C34.0335 36.9074 33.7317 35.8544 32.9707 35.2021L32.8115 35.0771L19.8643 25.6709C18.6887 24.8168 19.293 22.957 20.7461 22.957H36.75C37.7652 22.957 38.6723 22.3441 39.0576 21.4189L39.1279 21.2295L44.0732 6.00879Z" fill="#689FB7" stroke="black"/>
</svg>
