<svg width="1440" height="752" viewBox="0 0 1440 752" fill="none" xmlns="http://www.w3.org/2000/svg">
<g filter="url(#filter0_f_2019_7)">
<path d="M653.622 259.98L665.014 305.627C343.005 314.757 254.908 390.582 251.11 427.353C254.148 533.863 540.969 563.026 684 564.294L680.203 587.118C239.719 571.902 137.192 474.268 140.989 427.353C147.065 302.584 485.276 263.784 653.622 259.98Z" fill="#689FB7"/>
<path d="M630.838 172.49L642.23 214.333C147.065 235.635 28.3364 352.542 30.8681 408.333C9.60333 542.231 449.835 595.993 672.608 606.137L665.014 628.961C45.298 601.573 -86.8477 462.856 -75.456 396.922C-51.1534 229.549 405.533 177.562 630.838 172.49Z" fill="#689FB7"/>
<path d="M619.446 85V126.843C-48.8744 160.318 -198.235 308.163 -189.375 377.902C-195.45 569.62 375.154 635.301 661.216 644.176L653.622 667C-206.082 630.482 -385.567 459.052 -367.846 377.902C-355.695 155.753 295.412 90.0719 619.446 85Z" fill="#689FB7"/>
</g>
<g filter="url(#filter1_f_2019_7)">
<path d="M787.378 259.98L775.986 305.627C1098 314.757 1186.09 390.582 1189.89 427.353C1186.85 533.863 900.031 563.026 757 564.294L760.797 587.118C1201.28 571.902 1303.81 474.268 1300.01 427.353C1293.94 302.584 955.724 263.784 787.378 259.98Z" fill="#689FB7"/>
<path d="M810.162 172.49L798.77 214.333C1293.94 235.635 1412.66 352.542 1410.13 408.333C1431.4 542.231 991.165 595.993 768.392 606.137L775.986 628.961C1395.7 601.573 1527.85 462.856 1516.46 396.922C1492.15 229.549 1035.47 177.562 810.162 172.49Z" fill="#689FB7"/>
<path d="M821.554 85V126.843C1489.87 160.318 1639.23 308.163 1630.37 377.902C1636.45 569.62 1065.85 635.301 779.784 644.176L787.378 667C1647.08 630.482 1826.57 459.052 1808.85 377.902C1796.69 155.753 1145.59 90.0719 821.554 85Z" fill="#689FB7"/>
</g>
<defs>
<filter id="filter0_f_2019_7" x="-453.9" y="0.0999985" width="1222.8" height="751.8" filterUnits="userSpaceOnUse" color-interpolation-filters="sRGB">
<feFlood flood-opacity="0" result="BackgroundImageFix"/>
<feBlend mode="normal" in="SourceGraphic" in2="BackgroundImageFix" result="shape"/>
<feGaussianBlur stdDeviation="42.45" result="effect1_foregroundBlur_2019_7"/>
</filter>
<filter id="filter1_f_2019_7" x="672.1" y="0.0999985" width="1222.8" height="751.8" filterUnits="userSpaceOnUse" color-interpolation-filters="sRGB">
<feFlood flood-opacity="0" result="BackgroundImageFix"/>
<feBlend mode="normal" in="SourceGraphic" in2="BackgroundImageFix" result="shape"/>
<feGaussianBlur stdDeviation="42.45" result="effect1_foregroundBlur_2019_7"/>
</filter>
</defs>
</svg>
